<?xml version="1.0" encoding="utf-8"?>
<svg xmlns="http://www.w3.org/2000/svg" xmlns:xlink="http://www.w3.org/1999/xlink" width="600" height="400" viewBox="0 0 2400 1600">
<defs>
  <clipPath id="clip300">
    <rect x="0" y="0" width="2400" height="1600"/>
  </clipPath>
</defs>
<path clip-path="url(#clip300)" d="M0 1600 L2400 1600 L2400 0 L0 0  Z" fill="#ffffff" fill-rule="evenodd" fill-opacity="1"/>
<defs>
  <clipPath id="clip301">
    <rect x="480" y="0" width="1681" height="1600"/>
  </clipPath>
</defs>
<path clip-path="url(#clip300)" d="M262.551 1423.18 L2224.55 1423.18 L2224.55 47.2441 L262.551 47.2441  Z" fill="#ffffff" fill-rule="evenodd" fill-opacity="1"/>
<defs>
  <clipPath id="clip302">
    <rect x="262" y="47" width="1963" height="1377"/>
  </clipPath>
</defs>
<polyline clip-path="url(#clip302)" style="stroke:#000000; stroke-linecap:round; stroke-linejoin:round; stroke-width:2; stroke-opacity:0.1; fill:none" points="451.682,1423.18 451.682,47.2441 "/>
<polyline clip-path="url(#clip302)" style="stroke:#000000; stroke-linecap:round; stroke-linejoin:round; stroke-width:2; stroke-opacity:0.1; fill:none" points="857.77,1423.18 857.77,47.2441 "/>
<polyline clip-path="url(#clip302)" style="stroke:#000000; stroke-linecap:round; stroke-linejoin:round; stroke-width:2; stroke-opacity:0.1; fill:none" points="1263.86,1423.18 1263.86,47.2441 "/>
<polyline clip-path="url(#clip302)" style="stroke:#000000; stroke-linecap:round; stroke-linejoin:round; stroke-width:2; stroke-opacity:0.1; fill:none" points="1669.94,1423.18 1669.94,47.2441 "/>
<polyline clip-path="url(#clip302)" style="stroke:#000000; stroke-linecap:round; stroke-linejoin:round; stroke-width:2; stroke-opacity:0.1; fill:none" points="2076.03,1423.18 2076.03,47.2441 "/>
<polyline clip-path="url(#clip300)" style="stroke:#000000; stroke-linecap:round; stroke-linejoin:round; stroke-width:4; stroke-opacity:1; fill:none" points="262.551,1423.18 2224.55,1423.18 "/>
<polyline clip-path="url(#clip300)" style="stroke:#000000; stroke-linecap:round; stroke-linejoin:round; stroke-width:4; stroke-opacity:1; fill:none" points="451.682,1423.18 451.682,1404.28 "/>
<polyline clip-path="url(#clip300)" style="stroke:#000000; stroke-linecap:round; stroke-linejoin:round; stroke-width:4; stroke-opacity:1; fill:none" points="857.77,1423.18 857.77,1404.28 "/>
<polyline clip-path="url(#clip300)" style="stroke:#000000; stroke-linecap:round; stroke-linejoin:round; stroke-width:4; stroke-opacity:1; fill:none" points="1263.86,1423.18 1263.86,1404.28 "/>
<polyline clip-path="url(#clip300)" style="stroke:#000000; stroke-linecap:round; stroke-linejoin:round; stroke-width:4; stroke-opacity:1; fill:none" points="1669.94,1423.18 1669.94,1404.28 "/>
<polyline clip-path="url(#clip300)" style="stroke:#000000; stroke-linecap:round; stroke-linejoin:round; stroke-width:4; stroke-opacity:1; fill:none" points="2076.03,1423.18 2076.03,1404.28 "/>
<path clip-path="url(#clip300)" d="M428.986 1454.1 Q425.375 1454.1 423.546 1457.66 Q421.74 1461.2 421.74 1468.33 Q421.74 1475.44 423.546 1479.01 Q425.375 1482.55 428.986 1482.55 Q432.62 1482.55 434.426 1479.01 Q436.254 1475.44 436.254 1468.33 Q436.254 1461.2 434.426 1457.66 Q432.62 1454.1 428.986 1454.1 M428.986 1450.39 Q434.796 1450.39 437.851 1455 Q440.93 1459.58 440.93 1468.33 Q440.93 1477.06 437.851 1481.67 Q434.796 1486.25 428.986 1486.25 Q423.176 1486.25 420.097 1481.67 Q417.041 1477.06 417.041 1468.33 Q417.041 1459.58 420.097 1455 Q423.176 1450.39 428.986 1450.39 Z" fill="#000000" fill-rule="nonzero" fill-opacity="1" /><path clip-path="url(#clip300)" d="M449.148 1479.7 L454.032 1479.7 L454.032 1485.58 L449.148 1485.58 L449.148 1479.7 Z" fill="#000000" fill-rule="nonzero" fill-opacity="1" /><path clip-path="url(#clip300)" d="M474.796 1466.44 Q471.648 1466.44 469.796 1468.59 Q467.967 1470.74 467.967 1474.49 Q467.967 1478.22 469.796 1480.39 Q471.648 1482.55 474.796 1482.55 Q477.944 1482.55 479.773 1480.39 Q481.624 1478.22 481.624 1474.49 Q481.624 1470.74 479.773 1468.59 Q477.944 1466.44 474.796 1466.44 M484.078 1451.78 L484.078 1456.04 Q482.319 1455.21 480.513 1454.77 Q478.731 1454.33 476.972 1454.33 Q472.342 1454.33 469.888 1457.45 Q467.458 1460.58 467.111 1466.9 Q468.476 1464.89 470.536 1463.82 Q472.597 1462.73 475.073 1462.73 Q480.282 1462.73 483.291 1465.9 Q486.323 1469.05 486.323 1474.49 Q486.323 1479.82 483.175 1483.03 Q480.027 1486.25 474.796 1486.25 Q468.8 1486.25 465.629 1481.67 Q462.458 1477.06 462.458 1468.33 Q462.458 1460.14 466.347 1455.28 Q470.236 1450.39 476.786 1450.39 Q478.546 1450.39 480.328 1450.74 Q482.134 1451.09 484.078 1451.78 Z" fill="#000000" fill-rule="nonzero" fill-opacity="1" /><path clip-path="url(#clip300)" d="M835.201 1454.1 Q831.589 1454.1 829.761 1457.66 Q827.955 1461.2 827.955 1468.33 Q827.955 1475.44 829.761 1479.01 Q831.589 1482.55 835.201 1482.55 Q838.835 1482.55 840.64 1479.01 Q842.469 1475.44 842.469 1468.33 Q842.469 1461.2 840.64 1457.66 Q838.835 1454.1 835.201 1454.1 M835.201 1450.39 Q841.011 1450.39 844.066 1455 Q847.145 1459.58 847.145 1468.33 Q847.145 1477.06 844.066 1481.67 Q841.011 1486.25 835.201 1486.25 Q829.39 1486.25 826.312 1481.67 Q823.256 1477.06 823.256 1468.33 Q823.256 1459.58 826.312 1455 Q829.39 1450.39 835.201 1450.39 Z" fill="#000000" fill-rule="nonzero" fill-opacity="1" /><path clip-path="url(#clip300)" d="M855.363 1479.7 L860.247 1479.7 L860.247 1485.58 L855.363 1485.58 L855.363 1479.7 Z" fill="#000000" fill-rule="nonzero" fill-opacity="1" /><path clip-path="url(#clip300)" d="M880.432 1469.17 Q877.098 1469.17 875.177 1470.95 Q873.279 1472.73 873.279 1475.86 Q873.279 1478.98 875.177 1480.77 Q877.098 1482.55 880.432 1482.55 Q883.765 1482.55 885.686 1480.77 Q887.608 1478.96 887.608 1475.86 Q887.608 1472.73 885.686 1470.95 Q883.788 1469.17 880.432 1469.17 M875.756 1467.18 Q872.747 1466.44 871.057 1464.38 Q869.39 1462.32 869.39 1459.35 Q869.39 1455.21 872.33 1452.8 Q875.293 1450.39 880.432 1450.39 Q885.594 1450.39 888.534 1452.8 Q891.473 1455.21 891.473 1459.35 Q891.473 1462.32 889.784 1464.38 Q888.117 1466.44 885.131 1467.18 Q888.51 1467.96 890.385 1470.26 Q892.284 1472.55 892.284 1475.86 Q892.284 1480.88 889.205 1483.57 Q886.149 1486.25 880.432 1486.25 Q874.714 1486.25 871.636 1483.57 Q868.58 1480.88 868.58 1475.86 Q868.58 1472.55 870.478 1470.26 Q872.376 1467.96 875.756 1467.18 M874.043 1459.79 Q874.043 1462.48 875.71 1463.98 Q877.399 1465.49 880.432 1465.49 Q883.441 1465.49 885.131 1463.98 Q886.844 1462.48 886.844 1459.79 Q886.844 1457.11 885.131 1455.6 Q883.441 1454.1 880.432 1454.1 Q877.399 1454.1 875.71 1455.6 Q874.043 1457.11 874.043 1459.79 Z" fill="#000000" fill-rule="nonzero" fill-opacity="1" /><path clip-path="url(#clip300)" d="M1231.01 1481.64 L1238.65 1481.64 L1238.65 1455.28 L1230.34 1456.95 L1230.34 1452.69 L1238.6 1451.02 L1243.28 1451.02 L1243.28 1481.64 L1250.92 1481.64 L1250.92 1485.58 L1231.01 1485.58 L1231.01 1481.64 Z" fill="#000000" fill-rule="nonzero" fill-opacity="1" /><path clip-path="url(#clip300)" d="M1260.36 1479.7 L1265.25 1479.7 L1265.25 1485.58 L1260.36 1485.58 L1260.36 1479.7 Z" fill="#000000" fill-rule="nonzero" fill-opacity="1" /><path clip-path="url(#clip300)" d="M1285.43 1454.1 Q1281.82 1454.1 1279.99 1457.66 Q1278.19 1461.2 1278.19 1468.33 Q1278.19 1475.44 1279.99 1479.01 Q1281.82 1482.55 1285.43 1482.55 Q1289.07 1482.55 1290.87 1479.01 Q1292.7 1475.44 1292.7 1468.33 Q1292.7 1461.2 1290.87 1457.66 Q1289.07 1454.1 1285.43 1454.1 M1285.43 1450.39 Q1291.24 1450.39 1294.3 1455 Q1297.38 1459.58 1297.38 1468.33 Q1297.38 1477.06 1294.3 1481.67 Q1291.24 1486.25 1285.43 1486.25 Q1279.62 1486.25 1276.54 1481.67 Q1273.49 1477.06 1273.49 1468.33 Q1273.49 1459.58 1276.54 1455 Q1279.62 1450.39 1285.43 1450.39 Z" fill="#000000" fill-rule="nonzero" fill-opacity="1" /><path clip-path="url(#clip300)" d="M1637.9 1481.64 L1645.54 1481.64 L1645.54 1455.28 L1637.23 1456.95 L1637.23 1452.69 L1645.49 1451.02 L1650.16 1451.02 L1650.16 1481.64 L1657.8 1481.64 L1657.8 1485.58 L1637.9 1485.58 L1637.9 1481.64 Z" fill="#000000" fill-rule="nonzero" fill-opacity="1" /><path clip-path="url(#clip300)" d="M1667.25 1479.7 L1672.13 1479.7 L1672.13 1485.58 L1667.25 1485.58 L1667.25 1479.7 Z" fill="#000000" fill-rule="nonzero" fill-opacity="1" /><path clip-path="url(#clip300)" d="M1686.35 1481.64 L1702.66 1481.64 L1702.66 1485.58 L1680.72 1485.58 L1680.72 1481.64 Q1683.38 1478.89 1687.97 1474.26 Q1692.57 1469.61 1693.75 1468.27 Q1696 1465.74 1696.88 1464.01 Q1697.78 1462.25 1697.78 1460.56 Q1697.78 1457.8 1695.84 1456.07 Q1693.91 1454.33 1690.81 1454.33 Q1688.61 1454.33 1686.16 1455.09 Q1683.73 1455.86 1680.95 1457.41 L1680.95 1452.69 Q1683.78 1451.55 1686.23 1450.97 Q1688.68 1450.39 1690.72 1450.39 Q1696.09 1450.39 1699.28 1453.08 Q1702.48 1455.77 1702.48 1460.26 Q1702.48 1462.39 1701.67 1464.31 Q1700.88 1466.2 1698.78 1468.8 Q1698.2 1469.47 1695.1 1472.69 Q1691.99 1475.88 1686.35 1481.64 Z" fill="#000000" fill-rule="nonzero" fill-opacity="1" /><path clip-path="url(#clip300)" d="M2042.94 1481.64 L2050.58 1481.64 L2050.58 1455.28 L2042.27 1456.95 L2042.27 1452.69 L2050.53 1451.02 L2055.21 1451.02 L2055.21 1481.64 L2062.85 1481.64 L2062.85 1485.58 L2042.94 1485.58 L2042.94 1481.64 Z" fill="#000000" fill-rule="nonzero" fill-opacity="1" /><path clip-path="url(#clip300)" d="M2072.29 1479.7 L2077.18 1479.7 L2077.18 1485.58 L2072.29 1485.58 L2072.29 1479.7 Z" fill="#000000" fill-rule="nonzero" fill-opacity="1" /><path clip-path="url(#clip300)" d="M2100.21 1455.09 L2088.4 1473.54 L2100.21 1473.54 L2100.21 1455.09 M2098.98 1451.02 L2104.86 1451.02 L2104.86 1473.54 L2109.79 1473.54 L2109.79 1477.43 L2104.86 1477.43 L2104.86 1485.58 L2100.21 1485.58 L2100.21 1477.43 L2084.61 1477.43 L2084.61 1472.92 L2098.98 1451.02 Z" fill="#000000" fill-rule="nonzero" fill-opacity="1" /><path clip-path="url(#clip300)" d="M1034.69 1562.7 L1034.69 1581.6 L1028.81 1581.6 L1028.81 1532.4 L1034.69 1532.4 L1034.69 1537.81 Q1036.54 1534.62 1039.34 1533.1 Q1042.17 1531.54 1046.09 1531.54 Q1052.58 1531.54 1056.62 1536.69 Q1060.7 1541.85 1060.7 1550.25 Q1060.7 1558.65 1056.62 1563.81 Q1052.58 1568.97 1046.09 1568.97 Q1042.17 1568.97 1039.34 1567.44 Q1036.54 1565.88 1034.69 1562.7 M1054.62 1550.25 Q1054.62 1543.79 1051.95 1540.13 Q1049.3 1536.44 1044.66 1536.44 Q1040.01 1536.44 1037.34 1540.13 Q1034.69 1543.79 1034.69 1550.25 Q1034.69 1556.71 1037.34 1560.4 Q1040.01 1564.07 1044.66 1564.07 Q1049.3 1564.07 1051.95 1560.4 Q1054.62 1556.71 1054.62 1550.25 Z" fill="#000000" fill-rule="nonzero" fill-opacity="1" /><path clip-path="url(#clip300)" d="M1070.41 1518.52 L1076.26 1518.52 L1076.26 1568.04 L1070.41 1568.04 L1070.41 1518.52 Z" fill="#000000" fill-rule="nonzero" fill-opacity="1" /><path clip-path="url(#clip300)" d="M1104.72 1550.12 Q1097.62 1550.12 1094.88 1551.75 Q1092.14 1553.37 1092.14 1557.29 Q1092.14 1560.4 1094.18 1562.25 Q1096.25 1564.07 1099.78 1564.07 Q1104.65 1564.07 1107.58 1560.63 Q1110.54 1557.16 1110.54 1551.43 L1110.54 1550.12 L1104.72 1550.12 M1116.4 1547.71 L1116.4 1568.04 L1110.54 1568.04 L1110.54 1562.63 Q1108.54 1565.88 1105.54 1567.44 Q1102.55 1568.97 1098.22 1568.97 Q1092.75 1568.97 1089.5 1565.91 Q1086.29 1562.82 1086.29 1557.67 Q1086.29 1551.65 1090.3 1548.6 Q1094.34 1545.54 1102.33 1545.54 L1110.54 1545.54 L1110.54 1544.97 Q1110.54 1540.93 1107.87 1538.73 Q1105.23 1536.5 1100.42 1536.5 Q1097.36 1536.5 1094.47 1537.23 Q1091.57 1537.97 1088.9 1539.43 L1088.9 1534.02 Q1092.11 1532.78 1095.14 1532.17 Q1098.16 1531.54 1101.02 1531.54 Q1108.76 1531.54 1112.58 1535.55 Q1116.4 1539.56 1116.4 1547.71 Z" fill="#000000" fill-rule="nonzero" fill-opacity="1" /><path clip-path="url(#clip300)" d="M1143.29 1571.35 Q1140.81 1577.72 1138.46 1579.66 Q1136.1 1581.6 1132.15 1581.6 L1127.47 1581.6 L1127.47 1576.7 L1130.91 1576.7 Q1133.33 1576.7 1134.67 1575.56 Q1136 1574.41 1137.63 1570.14 L1138.68 1567.47 L1124.26 1532.4 L1130.47 1532.4 L1141.61 1560.28 L1152.75 1532.4 L1158.95 1532.4 L1143.29 1571.35 Z" fill="#000000" fill-rule="nonzero" fill-opacity="1" /><path clip-path="url(#clip300)" d="M1189.76 1533.45 L1189.76 1538.98 Q1187.28 1537.71 1184.61 1537.07 Q1181.93 1536.44 1179.07 1536.44 Q1174.71 1536.44 1172.51 1537.77 Q1170.35 1539.11 1170.35 1541.79 Q1170.35 1543.82 1171.91 1545 Q1173.47 1546.15 1178.18 1547.2 L1180.18 1547.64 Q1186.42 1548.98 1189.03 1551.43 Q1191.67 1553.85 1191.67 1558.21 Q1191.67 1563.17 1187.73 1566.07 Q1183.81 1568.97 1176.94 1568.97 Q1174.07 1568.97 1170.95 1568.39 Q1167.86 1567.85 1164.43 1566.74 L1164.43 1560.69 Q1167.67 1562.38 1170.82 1563.24 Q1173.98 1564.07 1177.06 1564.07 Q1181.2 1564.07 1183.43 1562.66 Q1185.66 1561.23 1185.66 1558.65 Q1185.66 1556.27 1184.03 1554.99 Q1182.44 1553.72 1177 1552.54 L1174.96 1552.07 Q1169.52 1550.92 1167.1 1548.56 Q1164.68 1546.18 1164.68 1542.04 Q1164.68 1537.01 1168.25 1534.27 Q1171.81 1531.54 1178.37 1531.54 Q1181.61 1531.54 1184.48 1532.01 Q1187.34 1532.49 1189.76 1533.45 Z" fill="#000000" fill-rule="nonzero" fill-opacity="1" /><path clip-path="url(#clip300)" d="M1227.38 1562.7 L1227.38 1581.6 L1221.5 1581.6 L1221.5 1532.4 L1227.38 1532.4 L1227.38 1537.81 Q1229.23 1534.62 1232.03 1533.1 Q1234.86 1531.54 1238.78 1531.54 Q1245.27 1531.54 1249.31 1536.69 Q1253.39 1541.85 1253.39 1550.25 Q1253.39 1558.65 1249.31 1563.81 Q1245.27 1568.97 1238.78 1568.97 Q1234.86 1568.97 1232.03 1567.44 Q1229.23 1565.88 1227.38 1562.7 M1247.31 1550.25 Q1247.31 1543.79 1244.64 1540.13 Q1241.99 1536.44 1237.35 1536.44 Q1232.7 1536.44 1230.03 1540.13 Q1227.38 1543.79 1227.38 1550.25 Q1227.38 1556.71 1230.03 1560.4 Q1232.7 1564.07 1237.35 1564.07 Q1241.99 1564.07 1244.64 1560.4 Q1247.31 1556.71 1247.31 1550.25 Z" fill="#000000" fill-rule="nonzero" fill-opacity="1" /><path clip-path="url(#clip300)" d="M1293.59 1548.76 L1293.59 1551.62 L1266.66 1551.62 Q1267.04 1557.67 1270.29 1560.85 Q1273.57 1564 1279.39 1564 Q1282.77 1564 1285.92 1563.17 Q1289.1 1562.35 1292.22 1560.69 L1292.22 1566.23 Q1289.07 1567.57 1285.76 1568.27 Q1282.45 1568.97 1279.04 1568.97 Q1270.51 1568.97 1265.51 1564 Q1260.55 1559.04 1260.55 1550.57 Q1260.55 1541.82 1265.26 1536.69 Q1270 1531.54 1278.02 1531.54 Q1285.22 1531.54 1289.39 1536.18 Q1293.59 1540.8 1293.59 1548.76 M1287.73 1547.04 Q1287.67 1542.23 1285.03 1539.37 Q1282.42 1536.5 1278.09 1536.5 Q1273.19 1536.5 1270.23 1539.27 Q1267.3 1542.04 1266.85 1547.07 L1287.73 1547.04 Z" fill="#000000" fill-rule="nonzero" fill-opacity="1" /><path clip-path="url(#clip300)" d="M1323.86 1537.87 Q1322.87 1537.3 1321.69 1537.04 Q1320.55 1536.76 1319.15 1536.76 Q1314.18 1536.76 1311.51 1540 Q1308.87 1543.22 1308.87 1549.27 L1308.87 1568.04 L1302.98 1568.04 L1302.98 1532.4 L1308.87 1532.4 L1308.87 1537.93 Q1310.71 1534.69 1313.67 1533.13 Q1316.63 1531.54 1320.86 1531.54 Q1321.47 1531.54 1322.2 1531.63 Q1322.93 1531.7 1323.82 1531.85 L1323.86 1537.87 Z" fill="#000000" fill-rule="nonzero" fill-opacity="1" /><path clip-path="url(#clip300)" d="M1371.03 1542.42 Q1375.64 1543.41 1378.22 1546.53 Q1380.83 1549.65 1380.83 1554.23 Q1380.83 1561.26 1375.99 1565.12 Q1371.15 1568.97 1362.24 1568.97 Q1359.25 1568.97 1356.07 1568.36 Q1352.92 1567.79 1349.54 1566.61 L1349.54 1560.4 Q1352.22 1561.96 1355.4 1562.76 Q1358.58 1563.56 1362.05 1563.56 Q1368.1 1563.56 1371.25 1561.17 Q1374.43 1558.78 1374.43 1554.23 Q1374.43 1550.03 1371.47 1547.67 Q1368.54 1545.29 1363.29 1545.29 L1357.75 1545.29 L1357.75 1540 L1363.55 1540 Q1368.29 1540 1370.8 1538.13 Q1373.32 1536.22 1373.32 1532.65 Q1373.32 1528.99 1370.71 1527.05 Q1368.13 1525.08 1363.29 1525.08 Q1360.65 1525.08 1357.63 1525.65 Q1354.6 1526.22 1350.97 1527.43 L1350.97 1521.7 Q1354.63 1520.68 1357.82 1520.17 Q1361.03 1519.66 1363.86 1519.66 Q1371.19 1519.66 1375.45 1523.01 Q1379.72 1526.32 1379.72 1531.98 Q1379.72 1535.93 1377.46 1538.67 Q1375.2 1541.37 1371.03 1542.42 Z" fill="#000000" fill-rule="nonzero" fill-opacity="1" /><path clip-path="url(#clip300)" d="M1406.77 1524.76 Q1401.8 1524.76 1399.29 1529.66 Q1396.81 1534.53 1396.81 1544.33 Q1396.81 1554.1 1399.29 1559 Q1401.8 1563.87 1406.77 1563.87 Q1411.77 1563.87 1414.25 1559 Q1416.76 1554.1 1416.76 1544.33 Q1416.76 1534.53 1414.25 1529.66 Q1411.77 1524.76 1406.77 1524.76 M1406.77 1519.66 Q1414.76 1519.66 1418.96 1526 Q1423.19 1532.3 1423.19 1544.33 Q1423.19 1556.33 1418.96 1562.66 Q1414.76 1568.97 1406.77 1568.97 Q1398.78 1568.97 1394.55 1562.66 Q1390.35 1556.33 1390.35 1544.33 Q1390.35 1532.3 1394.55 1526 Q1398.78 1519.66 1406.77 1519.66 Z" fill="#000000" fill-rule="nonzero" fill-opacity="1" /><path clip-path="url(#clip300)" d="M1456.39 1533.45 L1456.39 1538.98 Q1453.91 1537.71 1451.23 1537.07 Q1448.56 1536.44 1445.7 1536.44 Q1441.34 1536.44 1439.14 1537.77 Q1436.98 1539.11 1436.98 1541.79 Q1436.98 1543.82 1438.53 1545 Q1440.09 1546.15 1444.8 1547.2 L1446.81 1547.64 Q1453.05 1548.98 1455.66 1551.43 Q1458.3 1553.85 1458.3 1558.21 Q1458.3 1563.17 1454.35 1566.07 Q1450.44 1568.97 1443.56 1568.97 Q1440.7 1568.97 1437.58 1568.39 Q1434.49 1567.85 1431.05 1566.74 L1431.05 1560.69 Q1434.3 1562.38 1437.45 1563.24 Q1440.6 1564.07 1443.69 1564.07 Q1447.83 1564.07 1450.06 1562.66 Q1452.28 1561.23 1452.28 1558.65 Q1452.28 1556.27 1450.66 1554.99 Q1449.07 1553.72 1443.63 1552.54 L1441.59 1552.07 Q1436.15 1550.92 1433.73 1548.56 Q1431.31 1546.18 1431.31 1542.04 Q1431.31 1537.01 1434.87 1534.27 Q1438.44 1531.54 1445 1531.54 Q1448.24 1531.54 1451.11 1532.01 Q1453.97 1532.49 1456.39 1533.45 Z" fill="#000000" fill-rule="nonzero" fill-opacity="1" /><polyline clip-path="url(#clip300)" style="stroke:#000000; stroke-linecap:round; stroke-linejoin:round; stroke-width:4; stroke-opacity:1; fill:none" points="262.551,1423.18 262.551,47.2441 "/>
<polyline clip-path="url(#clip300)" style="stroke:#000000; stroke-linecap:round; stroke-linejoin:round; stroke-width:4; stroke-opacity:1; fill:none" points="262.551,1423.18 281.449,1423.18 "/>
<polyline clip-path="url(#clip300)" style="stroke:#000000; stroke-linecap:round; stroke-linejoin:round; stroke-width:4; stroke-opacity:1; fill:none" points="262.551,1141.23 281.449,1141.23 "/>
<polyline clip-path="url(#clip300)" style="stroke:#000000; stroke-linecap:round; stroke-linejoin:round; stroke-width:4; stroke-opacity:1; fill:none" points="262.551,859.272 281.449,859.272 "/>
<polyline clip-path="url(#clip300)" style="stroke:#000000; stroke-linecap:round; stroke-linejoin:round; stroke-width:4; stroke-opacity:1; fill:none" points="262.551,577.318 281.449,577.318 "/>
<polyline clip-path="url(#clip300)" style="stroke:#000000; stroke-linecap:round; stroke-linejoin:round; stroke-width:4; stroke-opacity:1; fill:none" points="262.551,295.364 281.449,295.364 "/>
<path clip-path="url(#clip300)" d="M214.607 1408.98 Q210.996 1408.98 209.167 1412.54 Q207.362 1416.08 207.362 1423.21 Q207.362 1430.32 209.167 1433.89 Q210.996 1437.43 214.607 1437.43 Q218.241 1437.43 220.047 1433.89 Q221.875 1430.32 221.875 1423.21 Q221.875 1416.08 220.047 1412.54 Q218.241 1408.98 214.607 1408.98 M214.607 1405.27 Q220.417 1405.27 223.473 1409.88 Q226.551 1414.46 226.551 1423.21 Q226.551 1431.94 223.473 1436.55 Q220.417 1441.13 214.607 1441.13 Q208.797 1441.13 205.718 1436.55 Q202.662 1431.94 202.662 1423.21 Q202.662 1414.46 205.718 1409.88 Q208.797 1405.27 214.607 1405.27 Z" fill="#000000" fill-rule="nonzero" fill-opacity="1" /><path clip-path="url(#clip300)" d="M148.311 1154.57 L164.63 1154.57 L164.63 1158.51 L142.686 1158.51 L142.686 1154.57 Q145.348 1151.82 149.931 1147.19 Q154.538 1142.53 155.718 1141.19 Q157.964 1138.67 158.843 1136.93 Q159.746 1135.17 159.746 1133.48 Q159.746 1130.73 157.802 1128.99 Q155.88 1127.26 152.778 1127.26 Q150.579 1127.26 148.126 1128.02 Q145.695 1128.78 142.917 1130.33 L142.917 1125.61 Q145.741 1124.48 148.195 1123.9 Q150.649 1123.32 152.686 1123.32 Q158.056 1123.32 161.251 1126.01 Q164.445 1128.69 164.445 1133.18 Q164.445 1135.31 163.635 1137.23 Q162.848 1139.13 160.741 1141.72 Q160.163 1142.39 157.061 1145.61 Q153.959 1148.81 148.311 1154.57 Z" fill="#000000" fill-rule="nonzero" fill-opacity="1" /><path clip-path="url(#clip300)" d="M174.491 1123.95 L192.848 1123.95 L192.848 1127.88 L178.774 1127.88 L178.774 1136.35 Q179.792 1136.01 180.811 1135.84 Q181.829 1135.66 182.848 1135.66 Q188.635 1135.66 192.014 1138.83 Q195.394 1142 195.394 1147.42 Q195.394 1153 191.922 1156.1 Q188.45 1159.18 182.13 1159.18 Q179.954 1159.18 177.686 1158.81 Q175.44 1158.44 173.033 1157.7 L173.033 1153 Q175.116 1154.13 177.339 1154.69 Q179.561 1155.24 182.038 1155.24 Q186.042 1155.24 188.38 1153.14 Q190.718 1151.03 190.718 1147.42 Q190.718 1143.81 188.38 1141.7 Q186.042 1139.59 182.038 1139.59 Q180.163 1139.59 178.288 1140.01 Q176.436 1140.43 174.491 1141.31 L174.491 1123.95 Z" fill="#000000" fill-rule="nonzero" fill-opacity="1" /><path clip-path="url(#clip300)" d="M214.607 1127.02 Q210.996 1127.02 209.167 1130.59 Q207.362 1134.13 207.362 1141.26 Q207.362 1148.37 209.167 1151.93 Q210.996 1155.47 214.607 1155.47 Q218.241 1155.47 220.047 1151.93 Q221.875 1148.37 221.875 1141.26 Q221.875 1134.13 220.047 1130.59 Q218.241 1127.02 214.607 1127.02 M214.607 1123.32 Q220.417 1123.32 223.473 1127.93 Q226.551 1132.51 226.551 1141.26 Q226.551 1149.99 223.473 1154.59 Q220.417 1159.18 214.607 1159.18 Q208.797 1159.18 205.718 1154.59 Q202.662 1149.99 202.662 1141.26 Q202.662 1132.51 205.718 1127.93 Q208.797 1123.32 214.607 1123.32 Z" fill="#000000" fill-rule="nonzero" fill-opacity="1" /><path clip-path="url(#clip300)" d="M144.329 841.992 L162.686 841.992 L162.686 845.927 L148.612 845.927 L148.612 854.399 Q149.63 854.052 150.649 853.89 Q151.667 853.705 152.686 853.705 Q158.473 853.705 161.852 856.876 Q165.232 860.047 165.232 865.464 Q165.232 871.043 161.76 874.144 Q158.288 877.223 151.968 877.223 Q149.792 877.223 147.524 876.853 Q145.279 876.482 142.871 875.742 L142.871 871.043 Q144.954 872.177 147.177 872.732 Q149.399 873.288 151.876 873.288 Q155.88 873.288 158.218 871.181 Q160.556 869.075 160.556 865.464 Q160.556 861.853 158.218 859.746 Q155.88 857.64 151.876 857.64 Q150.001 857.64 148.126 858.056 Q146.274 858.473 144.329 859.353 L144.329 841.992 Z" fill="#000000" fill-rule="nonzero" fill-opacity="1" /><path clip-path="url(#clip300)" d="M184.445 845.07 Q180.834 845.07 179.005 848.635 Q177.2 852.177 177.2 859.306 Q177.2 866.413 179.005 869.978 Q180.834 873.519 184.445 873.519 Q188.079 873.519 189.885 869.978 Q191.713 866.413 191.713 859.306 Q191.713 852.177 189.885 848.635 Q188.079 845.07 184.445 845.07 M184.445 841.367 Q190.255 841.367 193.311 845.973 Q196.389 850.557 196.389 859.306 Q196.389 868.033 193.311 872.64 Q190.255 877.223 184.445 877.223 Q178.635 877.223 175.556 872.64 Q172.501 868.033 172.501 859.306 Q172.501 850.557 175.556 845.973 Q178.635 841.367 184.445 841.367 Z" fill="#000000" fill-rule="nonzero" fill-opacity="1" /><path clip-path="url(#clip300)" d="M214.607 845.07 Q210.996 845.07 209.167 848.635 Q207.362 852.177 207.362 859.306 Q207.362 866.413 209.167 869.978 Q210.996 873.519 214.607 873.519 Q218.241 873.519 220.047 869.978 Q221.875 866.413 221.875 859.306 Q221.875 852.177 220.047 848.635 Q218.241 845.07 214.607 845.07 M214.607 841.367 Q220.417 841.367 223.473 845.973 Q226.551 850.557 226.551 859.306 Q226.551 868.033 223.473 872.64 Q220.417 877.223 214.607 877.223 Q208.797 877.223 205.718 872.64 Q202.662 868.033 202.662 859.306 Q202.662 850.557 205.718 845.973 Q208.797 841.367 214.607 841.367 Z" fill="#000000" fill-rule="nonzero" fill-opacity="1" /><path clip-path="url(#clip300)" d="M143.103 560.038 L165.325 560.038 L165.325 562.028 L152.778 594.598 L147.894 594.598 L159.7 563.973 L143.103 563.973 L143.103 560.038 Z" fill="#000000" fill-rule="nonzero" fill-opacity="1" /><path clip-path="url(#clip300)" d="M174.491 560.038 L192.848 560.038 L192.848 563.973 L178.774 563.973 L178.774 572.445 Q179.792 572.098 180.811 571.936 Q181.829 571.751 182.848 571.751 Q188.635 571.751 192.014 574.922 Q195.394 578.093 195.394 583.51 Q195.394 589.088 191.922 592.19 Q188.45 595.269 182.13 595.269 Q179.954 595.269 177.686 594.899 Q175.44 594.528 173.033 593.788 L173.033 589.088 Q175.116 590.223 177.339 590.778 Q179.561 591.334 182.038 591.334 Q186.042 591.334 188.38 589.227 Q190.718 587.121 190.718 583.51 Q190.718 579.899 188.38 577.792 Q186.042 575.686 182.038 575.686 Q180.163 575.686 178.288 576.102 Q176.436 576.519 174.491 577.399 L174.491 560.038 Z" fill="#000000" fill-rule="nonzero" fill-opacity="1" /><path clip-path="url(#clip300)" d="M214.607 563.116 Q210.996 563.116 209.167 566.681 Q207.362 570.223 207.362 577.352 Q207.362 584.459 209.167 588.024 Q210.996 591.565 214.607 591.565 Q218.241 591.565 220.047 588.024 Q221.875 584.459 221.875 577.352 Q221.875 570.223 220.047 566.681 Q218.241 563.116 214.607 563.116 M214.607 559.413 Q220.417 559.413 223.473 564.019 Q226.551 568.602 226.551 577.352 Q226.551 586.079 223.473 590.686 Q220.417 595.269 214.607 595.269 Q208.797 595.269 205.718 590.686 Q202.662 586.079 202.662 577.352 Q202.662 568.602 205.718 564.019 Q208.797 559.413 214.607 559.413 Z" fill="#000000" fill-rule="nonzero" fill-opacity="1" /><path clip-path="url(#clip300)" d="M114.931 308.708 L122.57 308.708 L122.57 282.343 L114.26 284.01 L114.26 279.75 L122.524 278.084 L127.2 278.084 L127.2 308.708 L134.839 308.708 L134.839 312.644 L114.931 312.644 L114.931 308.708 Z" fill="#000000" fill-rule="nonzero" fill-opacity="1" /><path clip-path="url(#clip300)" d="M154.283 281.162 Q150.672 281.162 148.843 284.727 Q147.038 288.269 147.038 295.398 Q147.038 302.505 148.843 306.07 Q150.672 309.611 154.283 309.611 Q157.917 309.611 159.723 306.07 Q161.552 302.505 161.552 295.398 Q161.552 288.269 159.723 284.727 Q157.917 281.162 154.283 281.162 M154.283 277.459 Q160.093 277.459 163.149 282.065 Q166.227 286.648 166.227 295.398 Q166.227 304.125 163.149 308.732 Q160.093 313.315 154.283 313.315 Q148.473 313.315 145.394 308.732 Q142.339 304.125 142.339 295.398 Q142.339 286.648 145.394 282.065 Q148.473 277.459 154.283 277.459 Z" fill="#000000" fill-rule="nonzero" fill-opacity="1" /><path clip-path="url(#clip300)" d="M184.445 281.162 Q180.834 281.162 179.005 284.727 Q177.2 288.269 177.2 295.398 Q177.2 302.505 179.005 306.07 Q180.834 309.611 184.445 309.611 Q188.079 309.611 189.885 306.07 Q191.713 302.505 191.713 295.398 Q191.713 288.269 189.885 284.727 Q188.079 281.162 184.445 281.162 M184.445 277.459 Q190.255 277.459 193.311 282.065 Q196.389 286.648 196.389 295.398 Q196.389 304.125 193.311 308.732 Q190.255 313.315 184.445 313.315 Q178.635 313.315 175.556 308.732 Q172.501 304.125 172.501 295.398 Q172.501 286.648 175.556 282.065 Q178.635 277.459 184.445 277.459 Z" fill="#000000" fill-rule="nonzero" fill-opacity="1" /><path clip-path="url(#clip300)" d="M214.607 281.162 Q210.996 281.162 209.167 284.727 Q207.362 288.269 207.362 295.398 Q207.362 302.505 209.167 306.07 Q210.996 309.611 214.607 309.611 Q218.241 309.611 220.047 306.07 Q221.875 302.505 221.875 295.398 Q221.875 288.269 220.047 284.727 Q218.241 281.162 214.607 281.162 M214.607 277.459 Q220.417 277.459 223.473 282.065 Q226.551 286.648 226.551 295.398 Q226.551 304.125 223.473 308.732 Q220.417 313.315 214.607 313.315 Q208.797 313.315 205.718 308.732 Q202.662 304.125 202.662 295.398 Q202.662 286.648 205.718 282.065 Q208.797 277.459 214.607 277.459 Z" fill="#000000" fill-rule="nonzero" fill-opacity="1" /><path clip-path="url(#clip300)" d="M14.479 874.271 L19.3487 874.271 L19.3487 879.873 Q19.3487 883.024 20.6219 884.265 Q21.895 885.474 25.2052 885.474 L28.3562 885.474 L28.3562 875.83 L32.9077 875.83 L32.9077 885.474 L64.0042 885.474 L64.0042 891.363 L32.9077 891.363 L32.9077 896.965 L28.3562 896.965 L28.3562 891.363 L25.8736 891.363 Q19.9216 891.363 17.2162 888.594 Q14.479 885.825 14.479 879.809 L14.479 874.271 Z" fill="#000000" fill-rule="nonzero" fill-opacity="1" /><path clip-path="url(#clip300)" d="M33.8307 848.713 Q33.2578 849.699 33.0032 850.877 Q32.7167 852.023 32.7167 853.423 Q32.7167 858.388 35.9632 861.062 Q39.1779 863.704 45.2253 863.704 L64.0042 863.704 L64.0042 869.592 L28.3562 869.592 L28.3562 863.704 L33.8944 863.704 Q30.6479 861.858 29.0883 858.898 Q27.4968 855.938 27.4968 851.704 Q27.4968 851.1 27.5923 850.368 Q27.656 849.636 27.8151 848.744 L33.8307 848.713 Z" fill="#000000" fill-rule="nonzero" fill-opacity="1" /><path clip-path="url(#clip300)" d="M44.7161 813.51 L47.5806 813.51 L47.5806 840.437 Q53.6281 840.055 56.8109 836.809 Q59.9619 833.53 59.9619 827.706 Q59.9619 824.332 59.1344 821.181 Q58.3069 817.998 56.6518 814.879 L62.1899 814.879 Q63.5267 818.03 64.227 821.34 Q64.9272 824.65 64.9272 828.056 Q64.9272 836.586 59.9619 841.583 Q54.9967 846.548 46.5303 846.548 Q37.7774 846.548 32.6531 841.838 Q27.4968 837.095 27.4968 829.074 Q27.4968 821.881 32.1438 817.712 Q36.7589 813.51 44.7161 813.51 M42.9973 819.367 Q38.1912 819.43 35.3266 822.072 Q32.4621 824.682 32.4621 829.011 Q32.4621 833.912 35.2312 836.872 Q38.0002 839.801 43.0292 840.246 L42.9973 819.367 Z" fill="#000000" fill-rule="nonzero" fill-opacity="1" /><path clip-path="url(#clip300)" d="M46.212 800.397 Q52.6732 800.397 56.3653 797.755 Q60.0256 795.081 60.0256 790.434 Q60.0256 785.788 56.3653 783.114 Q52.6732 780.44 46.212 780.44 Q39.7508 780.44 36.0905 783.114 Q32.3984 785.788 32.3984 790.434 Q32.3984 795.081 36.0905 797.755 Q39.7508 800.397 46.212 800.397 M58.657 780.44 Q61.8398 782.286 63.3994 785.119 Q64.9272 787.92 64.9272 791.867 Q64.9272 798.328 59.771 802.402 Q54.6147 806.444 46.212 806.444 Q37.8093 806.444 32.6531 802.402 Q27.4968 798.328 27.4968 791.867 Q27.4968 787.92 29.0564 785.119 Q30.5842 782.286 33.7671 780.44 L28.3562 780.44 L28.3562 774.584 L77.5631 774.584 L77.5631 780.44 L58.657 780.44 Z" fill="#000000" fill-rule="nonzero" fill-opacity="1" /><path clip-path="url(#clip300)" d="M49.9359 763.126 L28.3562 763.126 L28.3562 757.269 L49.7131 757.269 Q54.7739 757.269 57.3202 755.296 Q59.8346 753.322 59.8346 749.376 Q59.8346 744.633 56.8109 741.896 Q53.7872 739.127 48.5673 739.127 L28.3562 739.127 L28.3562 733.27 L64.0042 733.27 L64.0042 739.127 L58.5296 739.127 Q61.7762 741.259 63.3676 744.092 Q64.9272 746.893 64.9272 750.617 Q64.9272 756.76 61.1078 759.943 Q57.2883 763.126 49.9359 763.126 M27.4968 748.389 L27.4968 748.389 Z" fill="#000000" fill-rule="nonzero" fill-opacity="1" /><path clip-path="url(#clip300)" d="M44.7161 690.716 L47.5806 690.716 L47.5806 717.643 Q53.6281 717.261 56.8109 714.014 Q59.9619 710.736 59.9619 704.911 Q59.9619 701.537 59.1344 698.386 Q58.3069 695.204 56.6518 692.084 L62.1899 692.084 Q63.5267 695.235 64.227 698.545 Q64.9272 701.856 64.9272 705.261 Q64.9272 713.791 59.9619 718.788 Q54.9967 723.754 46.5303 723.754 Q37.7774 723.754 32.6531 719.043 Q27.4968 714.301 27.4968 706.28 Q27.4968 699.087 32.1438 694.917 Q36.7589 690.716 44.7161 690.716 M42.9973 696.572 Q38.1912 696.636 35.3266 699.278 Q32.4621 701.887 32.4621 706.216 Q32.4621 711.118 35.2312 714.078 Q38.0002 717.006 43.0292 717.452 L42.9973 696.572 Z" fill="#000000" fill-rule="nonzero" fill-opacity="1" /><path clip-path="url(#clip300)" d="M42.4881 651.471 L64.0042 651.471 L64.0042 657.328 L42.679 657.328 Q37.6183 657.328 35.1038 659.301 Q32.5894 661.274 32.5894 665.221 Q32.5894 669.963 35.6131 672.701 Q38.6368 675.438 43.8567 675.438 L64.0042 675.438 L64.0042 681.326 L28.3562 681.326 L28.3562 675.438 L33.8944 675.438 Q30.6797 673.337 29.0883 670.505 Q27.4968 667.64 27.4968 663.916 Q27.4968 657.773 31.3163 654.622 Q35.1038 651.471 42.4881 651.471 Z" fill="#000000" fill-rule="nonzero" fill-opacity="1" /><path clip-path="url(#clip300)" d="M29.7248 614.136 L35.1993 614.136 Q33.8307 616.619 33.1623 619.133 Q32.4621 621.616 32.4621 624.162 Q32.4621 629.86 36.0905 633.011 Q39.6872 636.162 46.212 636.162 Q52.7369 636.162 56.3653 633.011 Q59.9619 629.86 59.9619 624.162 Q59.9619 621.616 59.2935 619.133 Q58.5933 616.619 57.2247 614.136 L62.6355 614.136 Q63.7814 616.587 64.3543 619.229 Q64.9272 621.839 64.9272 624.799 Q64.9272 632.851 59.8664 637.594 Q54.8057 642.336 46.212 642.336 Q37.491 642.336 32.4939 637.562 Q27.4968 632.756 27.4968 624.417 Q27.4968 621.711 28.0697 619.133 Q28.6108 616.555 29.7248 614.136 Z" fill="#000000" fill-rule="nonzero" fill-opacity="1" /><path clip-path="url(#clip300)" d="M67.3143 589.119 Q73.68 591.602 75.6216 593.957 Q77.5631 596.312 77.5631 600.259 L77.5631 604.938 L72.6615 604.938 L72.6615 601.5 Q72.6615 599.081 71.5157 597.745 Q70.3699 596.408 66.1048 594.784 L63.4312 593.734 L28.3562 608.152 L28.3562 601.946 L56.238 590.806 L28.3562 579.666 L28.3562 573.459 L67.3143 589.119 Z" fill="#000000" fill-rule="nonzero" fill-opacity="1" /><path clip-path="url(#clip302)" d="M370.465 1422.05 L370.465 1423.18 L411.074 1423.18 L411.074 1422.05 L370.465 1422.05 L370.465 1422.05  Z" fill="#009af9" fill-rule="evenodd" fill-opacity="1"/>
<polyline clip-path="url(#clip302)" style="stroke:#000000; stroke-linecap:round; stroke-linejoin:round; stroke-width:4; stroke-opacity:1; fill:none" points="370.465,1422.05 370.465,1423.18 411.074,1423.18 411.074,1422.05 370.465,1422.05 "/>
<path clip-path="url(#clip302)" d="M411.074 1422.05 L411.074 1423.18 L451.682 1423.18 L451.682 1422.05 L411.074 1422.05 L411.074 1422.05  Z" fill="#009af9" fill-rule="evenodd" fill-opacity="1"/>
<polyline clip-path="url(#clip302)" style="stroke:#000000; stroke-linecap:round; stroke-linejoin:round; stroke-width:4; stroke-opacity:1; fill:none" points="411.074,1422.05 411.074,1423.18 451.682,1423.18 451.682,1422.05 411.074,1422.05 "/>
<path clip-path="url(#clip302)" d="M451.682 1418.67 L451.682 1423.18 L492.291 1423.18 L492.291 1418.67 L451.682 1418.67 L451.682 1418.67  Z" fill="#009af9" fill-rule="evenodd" fill-opacity="1"/>
<polyline clip-path="url(#clip302)" style="stroke:#000000; stroke-linecap:round; stroke-linejoin:round; stroke-width:4; stroke-opacity:1; fill:none" points="451.682,1418.67 451.682,1423.18 492.291,1423.18 492.291,1418.67 451.682,1418.67 "/>
<path clip-path="url(#clip302)" d="M492.291 1416.41 L492.291 1423.18 L532.9 1423.18 L532.9 1416.41 L492.291 1416.41 L492.291 1416.41  Z" fill="#009af9" fill-rule="evenodd" fill-opacity="1"/>
<polyline clip-path="url(#clip302)" style="stroke:#000000; stroke-linecap:round; stroke-linejoin:round; stroke-width:4; stroke-opacity:1; fill:none" points="492.291,1416.41 492.291,1423.18 532.9,1423.18 532.9,1416.41 492.291,1416.41 "/>
<path clip-path="url(#clip302)" d="M532.9 1413.03 L532.9 1423.18 L573.509 1423.18 L573.509 1413.03 L532.9 1413.03 L532.9 1413.03  Z" fill="#009af9" fill-rule="evenodd" fill-opacity="1"/>
<polyline clip-path="url(#clip302)" style="stroke:#000000; stroke-linecap:round; stroke-linejoin:round; stroke-width:4; stroke-opacity:1; fill:none" points="532.9,1413.03 532.9,1423.18 573.509,1423.18 573.509,1413.03 532.9,1413.03 "/>
<path clip-path="url(#clip302)" d="M573.509 1405.13 L573.509 1423.18 L614.117 1423.18 L614.117 1405.13 L573.509 1405.13 L573.509 1405.13  Z" fill="#009af9" fill-rule="evenodd" fill-opacity="1"/>
<polyline clip-path="url(#clip302)" style="stroke:#000000; stroke-linecap:round; stroke-linejoin:round; stroke-width:4; stroke-opacity:1; fill:none" points="573.509,1405.13 573.509,1423.18 614.117,1423.18 614.117,1405.13 573.509,1405.13 "/>
<path clip-path="url(#clip302)" d="M614.117 1393.86 L614.117 1423.18 L654.726 1423.18 L654.726 1393.86 L614.117 1393.86 L614.117 1393.86  Z" fill="#009af9" fill-rule="evenodd" fill-opacity="1"/>
<polyline clip-path="url(#clip302)" style="stroke:#000000; stroke-linecap:round; stroke-linejoin:round; stroke-width:4; stroke-opacity:1; fill:none" points="614.117,1393.86 614.117,1423.18 654.726,1423.18 654.726,1393.86 614.117,1393.86 "/>
<path clip-path="url(#clip302)" d="M654.726 1396.11 L654.726 1423.18 L695.335 1423.18 L695.335 1396.11 L654.726 1396.11 L654.726 1396.11  Z" fill="#009af9" fill-rule="evenodd" fill-opacity="1"/>
<polyline clip-path="url(#clip302)" style="stroke:#000000; stroke-linecap:round; stroke-linejoin:round; stroke-width:4; stroke-opacity:1; fill:none" points="654.726,1396.11 654.726,1423.18 695.335,1423.18 695.335,1396.11 654.726,1396.11 "/>
<path clip-path="url(#clip302)" d="M695.335 1374.68 L695.335 1423.18 L735.944 1423.18 L735.944 1374.68 L695.335 1374.68 L695.335 1374.68  Z" fill="#009af9" fill-rule="evenodd" fill-opacity="1"/>
<polyline clip-path="url(#clip302)" style="stroke:#000000; stroke-linecap:round; stroke-linejoin:round; stroke-width:4; stroke-opacity:1; fill:none" points="695.335,1374.68 695.335,1423.18 735.944,1423.18 735.944,1374.68 695.335,1374.68 "/>
<path clip-path="url(#clip302)" d="M735.944 1365.66 L735.944 1423.18 L776.552 1423.18 L776.552 1365.66 L735.944 1365.66 L735.944 1365.66  Z" fill="#009af9" fill-rule="evenodd" fill-opacity="1"/>
<polyline clip-path="url(#clip302)" style="stroke:#000000; stroke-linecap:round; stroke-linejoin:round; stroke-width:4; stroke-opacity:1; fill:none" points="735.944,1365.66 735.944,1423.18 776.552,1423.18 776.552,1365.66 735.944,1365.66 "/>
<path clip-path="url(#clip302)" d="M776.552 1310.4 L776.552 1423.18 L817.161 1423.18 L817.161 1310.4 L776.552 1310.4 L776.552 1310.4  Z" fill="#009af9" fill-rule="evenodd" fill-opacity="1"/>
<polyline clip-path="url(#clip302)" style="stroke:#000000; stroke-linecap:round; stroke-linejoin:round; stroke-width:4; stroke-opacity:1; fill:none" points="776.552,1310.4 776.552,1423.18 817.161,1423.18 817.161,1310.4 776.552,1310.4 "/>
<path clip-path="url(#clip302)" d="M817.161 1292.35 L817.161 1423.18 L857.77 1423.18 L857.77 1292.35 L817.161 1292.35 L817.161 1292.35  Z" fill="#009af9" fill-rule="evenodd" fill-opacity="1"/>
<polyline clip-path="url(#clip302)" style="stroke:#000000; stroke-linecap:round; stroke-linejoin:round; stroke-width:4; stroke-opacity:1; fill:none" points="817.161,1292.35 817.161,1423.18 857.77,1423.18 857.77,1292.35 817.161,1292.35 "/>
<path clip-path="url(#clip302)" d="M857.77 1232.58 L857.77 1423.18 L898.379 1423.18 L898.379 1232.58 L857.77 1232.58 L857.77 1232.58  Z" fill="#009af9" fill-rule="evenodd" fill-opacity="1"/>
<polyline clip-path="url(#clip302)" style="stroke:#000000; stroke-linecap:round; stroke-linejoin:round; stroke-width:4; stroke-opacity:1; fill:none" points="857.77,1232.58 857.77,1423.18 898.379,1423.18 898.379,1232.58 857.77,1232.58 "/>
<path clip-path="url(#clip302)" d="M898.379 1163.78 L898.379 1423.18 L938.987 1423.18 L938.987 1163.78 L898.379 1163.78 L898.379 1163.78  Z" fill="#009af9" fill-rule="evenodd" fill-opacity="1"/>
<polyline clip-path="url(#clip302)" style="stroke:#000000; stroke-linecap:round; stroke-linejoin:round; stroke-width:4; stroke-opacity:1; fill:none" points="898.379,1163.78 898.379,1423.18 938.987,1423.18 938.987,1163.78 898.379,1163.78 "/>
<path clip-path="url(#clip302)" d="M938.987 977.692 L938.987 1423.18 L979.596 1423.18 L979.596 977.692 L938.987 977.692 L938.987 977.692  Z" fill="#009af9" fill-rule="evenodd" fill-opacity="1"/>
<polyline clip-path="url(#clip302)" style="stroke:#000000; stroke-linecap:round; stroke-linejoin:round; stroke-width:4; stroke-opacity:1; fill:none" points="938.987,977.692 938.987,1423.18 979.596,1423.18 979.596,977.692 938.987,977.692 "/>
<path clip-path="url(#clip302)" d="M979.596 933.708 L979.596 1423.18 L1020.2 1423.18 L1020.2 933.708 L979.596 933.708 L979.596 933.708  Z" fill="#009af9" fill-rule="evenodd" fill-opacity="1"/>
<polyline clip-path="url(#clip302)" style="stroke:#000000; stroke-linecap:round; stroke-linejoin:round; stroke-width:4; stroke-opacity:1; fill:none" points="979.596,933.708 979.596,1423.18 1020.2,1423.18 1020.2,933.708 979.596,933.708 "/>
<path clip-path="url(#clip302)" d="M1020.2 730.701 L1020.2 1423.18 L1060.81 1423.18 L1060.81 730.701 L1020.2 730.701 L1020.2 730.701  Z" fill="#009af9" fill-rule="evenodd" fill-opacity="1"/>
<polyline clip-path="url(#clip302)" style="stroke:#000000; stroke-linecap:round; stroke-linejoin:round; stroke-width:4; stroke-opacity:1; fill:none" points="1020.2,730.701 1020.2,1423.18 1060.81,1423.18 1060.81,730.701 1020.2,730.701 "/>
<path clip-path="url(#clip302)" d="M1060.81 553.634 L1060.81 1423.18 L1101.42 1423.18 L1101.42 553.634 L1060.81 553.634 L1060.81 553.634  Z" fill="#009af9" fill-rule="evenodd" fill-opacity="1"/>
<polyline clip-path="url(#clip302)" style="stroke:#000000; stroke-linecap:round; stroke-linejoin:round; stroke-width:4; stroke-opacity:1; fill:none" points="1060.81,553.634 1060.81,1423.18 1101.42,1423.18 1101.42,553.634 1060.81,553.634 "/>
<path clip-path="url(#clip302)" d="M1101.42 372.055 L1101.42 1423.18 L1142.03 1423.18 L1142.03 372.055 L1101.42 372.055 L1101.42 372.055  Z" fill="#009af9" fill-rule="evenodd" fill-opacity="1"/>
<polyline clip-path="url(#clip302)" style="stroke:#000000; stroke-linecap:round; stroke-linejoin:round; stroke-width:4; stroke-opacity:1; fill:none" points="1101.42,372.055 1101.42,1423.18 1142.03,1423.18 1142.03,372.055 1101.42,372.055 "/>
<path clip-path="url(#clip302)" d="M1142.03 252.507 L1142.03 1423.18 L1182.64 1423.18 L1182.64 252.507 L1142.03 252.507 L1142.03 252.507  Z" fill="#009af9" fill-rule="evenodd" fill-opacity="1"/>
<polyline clip-path="url(#clip302)" style="stroke:#000000; stroke-linecap:round; stroke-linejoin:round; stroke-width:4; stroke-opacity:1; fill:none" points="1142.03,252.507 1142.03,1423.18 1182.64,1423.18 1182.64,252.507 1142.03,252.507 "/>
<path clip-path="url(#clip302)" d="M1182.64 130.702 L1182.64 1423.18 L1223.25 1423.18 L1223.25 130.702 L1182.64 130.702 L1182.64 130.702  Z" fill="#009af9" fill-rule="evenodd" fill-opacity="1"/>
<polyline clip-path="url(#clip302)" style="stroke:#000000; stroke-linecap:round; stroke-linejoin:round; stroke-width:4; stroke-opacity:1; fill:none" points="1182.64,130.702 1182.64,1423.18 1223.25,1423.18 1223.25,130.702 1182.64,130.702 "/>
<path clip-path="url(#clip302)" d="M1223.25 731.829 L1223.25 1423.18 L1263.86 1423.18 L1263.86 731.829 L1223.25 731.829 L1223.25 731.829  Z" fill="#009af9" fill-rule="evenodd" fill-opacity="1"/>
<polyline clip-path="url(#clip302)" style="stroke:#000000; stroke-linecap:round; stroke-linejoin:round; stroke-width:4; stroke-opacity:1; fill:none" points="1223.25,731.829 1223.25,1423.18 1263.86,1423.18 1263.86,731.829 1223.25,731.829 "/>
<path clip-path="url(#clip302)" d="M1263.86 51.7554 L1263.86 1423.18 L1304.47 1423.18 L1304.47 51.7554 L1263.86 51.7554 L1263.86 51.7554  Z" fill="#009af9" fill-rule="evenodd" fill-opacity="1"/>
<polyline clip-path="url(#clip302)" style="stroke:#000000; stroke-linecap:round; stroke-linejoin:round; stroke-width:4; stroke-opacity:1; fill:none" points="1263.86,51.7554 1263.86,1423.18 1304.47,1423.18 1304.47,51.7554 1263.86,51.7554 "/>
<path clip-path="url(#clip302)" d="M1304.47 47.2441 L1304.47 1423.18 L1345.07 1423.18 L1345.07 47.2441 L1304.47 47.2441 L1304.47 47.2441  Z" fill="#009af9" fill-rule="evenodd" fill-opacity="1"/>
<polyline clip-path="url(#clip302)" style="stroke:#000000; stroke-linecap:round; stroke-linejoin:round; stroke-width:4; stroke-opacity:1; fill:none" points="1304.47,47.2441 1304.47,1423.18 1345.07,1423.18 1345.07,47.2441 1304.47,47.2441 "/>
<path clip-path="url(#clip302)" d="M1345.07 117.169 L1345.07 1423.18 L1385.68 1423.18 L1385.68 117.169 L1345.07 117.169 L1345.07 117.169  Z" fill="#009af9" fill-rule="evenodd" fill-opacity="1"/>
<polyline clip-path="url(#clip302)" style="stroke:#000000; stroke-linecap:round; stroke-linejoin:round; stroke-width:4; stroke-opacity:1; fill:none" points="1345.07,117.169 1345.07,1423.18 1385.68,1423.18 1385.68,117.169 1345.07,117.169 "/>
<path clip-path="url(#clip302)" d="M1385.68 249.123 L1385.68 1423.18 L1426.29 1423.18 L1426.29 249.123 L1385.68 249.123 L1385.68 249.123  Z" fill="#009af9" fill-rule="evenodd" fill-opacity="1"/>
<polyline clip-path="url(#clip302)" style="stroke:#000000; stroke-linecap:round; stroke-linejoin:round; stroke-width:4; stroke-opacity:1; fill:none" points="1385.68,249.123 1385.68,1423.18 1426.29,1423.18 1426.29,249.123 1385.68,249.123 "/>
<path clip-path="url(#clip302)" d="M1426.29 418.296 L1426.29 1423.18 L1466.9 1423.18 L1466.9 418.296 L1426.29 418.296 L1426.29 418.296  Z" fill="#009af9" fill-rule="evenodd" fill-opacity="1"/>
<polyline clip-path="url(#clip302)" style="stroke:#000000; stroke-linecap:round; stroke-linejoin:round; stroke-width:4; stroke-opacity:1; fill:none" points="1426.29,418.296 1426.29,1423.18 1466.9,1423.18 1466.9,418.296 1426.29,418.296 "/>
<path clip-path="url(#clip302)" d="M1466.9 559.273 L1466.9 1423.18 L1507.51 1423.18 L1507.51 559.273 L1466.9 559.273 L1466.9 559.273  Z" fill="#009af9" fill-rule="evenodd" fill-opacity="1"/>
<polyline clip-path="url(#clip302)" style="stroke:#000000; stroke-linecap:round; stroke-linejoin:round; stroke-width:4; stroke-opacity:1; fill:none" points="1466.9,559.273 1466.9,1423.18 1507.51,1423.18 1507.51,559.273 1466.9,559.273 "/>
<path clip-path="url(#clip302)" d="M1507.51 738.595 L1507.51 1423.18 L1548.12 1423.18 L1548.12 738.595 L1507.51 738.595 L1507.51 738.595  Z" fill="#009af9" fill-rule="evenodd" fill-opacity="1"/>
<polyline clip-path="url(#clip302)" style="stroke:#000000; stroke-linecap:round; stroke-linejoin:round; stroke-width:4; stroke-opacity:1; fill:none" points="1507.51,738.595 1507.51,1423.18 1548.12,1423.18 1548.12,738.595 1507.51,738.595 "/>
<path clip-path="url(#clip302)" d="M1548.12 922.429 L1548.12 1423.18 L1588.73 1423.18 L1588.73 922.429 L1548.12 922.429 L1548.12 922.429  Z" fill="#009af9" fill-rule="evenodd" fill-opacity="1"/>
<polyline clip-path="url(#clip302)" style="stroke:#000000; stroke-linecap:round; stroke-linejoin:round; stroke-width:4; stroke-opacity:1; fill:none" points="1548.12,922.429 1548.12,1423.18 1588.73,1423.18 1588.73,922.429 1548.12,922.429 "/>
<path clip-path="url(#clip302)" d="M1588.73 1057.77 L1588.73 1423.18 L1629.34 1423.18 L1629.34 1057.77 L1588.73 1057.77 L1588.73 1057.77  Z" fill="#009af9" fill-rule="evenodd" fill-opacity="1"/>
<polyline clip-path="url(#clip302)" style="stroke:#000000; stroke-linecap:round; stroke-linejoin:round; stroke-width:4; stroke-opacity:1; fill:none" points="1588.73,1057.77 1588.73,1423.18 1629.34,1423.18 1629.34,1057.77 1588.73,1057.77 "/>
<path clip-path="url(#clip302)" d="M1629.34 1173.93 L1629.34 1423.18 L1669.94 1423.18 L1669.94 1173.93 L1629.34 1173.93 L1629.34 1173.93  Z" fill="#009af9" fill-rule="evenodd" fill-opacity="1"/>
<polyline clip-path="url(#clip302)" style="stroke:#000000; stroke-linecap:round; stroke-linejoin:round; stroke-width:4; stroke-opacity:1; fill:none" points="1629.34,1173.93 1629.34,1423.18 1669.94,1423.18 1669.94,1173.93 1629.34,1173.93 "/>
<path clip-path="url(#clip302)" d="M1669.94 1269.8 L1669.94 1423.18 L1710.55 1423.18 L1710.55 1269.8 L1669.94 1269.8 L1669.94 1269.8  Z" fill="#009af9" fill-rule="evenodd" fill-opacity="1"/>
<polyline clip-path="url(#clip302)" style="stroke:#000000; stroke-linecap:round; stroke-linejoin:round; stroke-width:4; stroke-opacity:1; fill:none" points="1669.94,1269.8 1669.94,1423.18 1710.55,1423.18 1710.55,1269.8 1669.94,1269.8 "/>
<path clip-path="url(#clip302)" d="M1710.55 1308.14 L1710.55 1423.18 L1751.16 1423.18 L1751.16 1308.14 L1710.55 1308.14 L1710.55 1308.14  Z" fill="#009af9" fill-rule="evenodd" fill-opacity="1"/>
<polyline clip-path="url(#clip302)" style="stroke:#000000; stroke-linecap:round; stroke-linejoin:round; stroke-width:4; stroke-opacity:1; fill:none" points="1710.55,1308.14 1710.55,1423.18 1751.16,1423.18 1751.16,1308.14 1710.55,1308.14 "/>
<path clip-path="url(#clip302)" d="M1751.16 1384.83 L1751.16 1423.18 L1791.77 1423.18 L1791.77 1384.83 L1751.16 1384.83 L1751.16 1384.83  Z" fill="#009af9" fill-rule="evenodd" fill-opacity="1"/>
<polyline clip-path="url(#clip302)" style="stroke:#000000; stroke-linecap:round; stroke-linejoin:round; stroke-width:4; stroke-opacity:1; fill:none" points="1751.16,1384.83 1751.16,1423.18 1791.77,1423.18 1791.77,1384.83 1751.16,1384.83 "/>
<path clip-path="url(#clip302)" d="M1791.77 1374.68 L1791.77 1423.18 L1832.38 1423.18 L1832.38 1374.68 L1791.77 1374.68 L1791.77 1374.68  Z" fill="#009af9" fill-rule="evenodd" fill-opacity="1"/>
<polyline clip-path="url(#clip302)" style="stroke:#000000; stroke-linecap:round; stroke-linejoin:round; stroke-width:4; stroke-opacity:1; fill:none" points="1791.77,1374.68 1791.77,1423.18 1832.38,1423.18 1832.38,1374.68 1791.77,1374.68 "/>
<path clip-path="url(#clip302)" d="M1832.38 1397.24 L1832.38 1423.18 L1872.99 1423.18 L1872.99 1397.24 L1832.38 1397.24 L1832.38 1397.24  Z" fill="#009af9" fill-rule="evenodd" fill-opacity="1"/>
<polyline clip-path="url(#clip302)" style="stroke:#000000; stroke-linecap:round; stroke-linejoin:round; stroke-width:4; stroke-opacity:1; fill:none" points="1832.38,1397.24 1832.38,1423.18 1872.99,1423.18 1872.99,1397.24 1832.38,1397.24 "/>
<path clip-path="url(#clip302)" d="M1872.99 1400.62 L1872.99 1423.18 L1913.6 1423.18 L1913.6 1400.62 L1872.99 1400.62 L1872.99 1400.62  Z" fill="#009af9" fill-rule="evenodd" fill-opacity="1"/>
<polyline clip-path="url(#clip302)" style="stroke:#000000; stroke-linecap:round; stroke-linejoin:round; stroke-width:4; stroke-opacity:1; fill:none" points="1872.99,1400.62 1872.99,1423.18 1913.6,1423.18 1913.6,1400.62 1872.99,1400.62 "/>
<path clip-path="url(#clip302)" d="M1913.6 1416.41 L1913.6 1423.18 L1954.21 1423.18 L1954.21 1416.41 L1913.6 1416.41 L1913.6 1416.41  Z" fill="#009af9" fill-rule="evenodd" fill-opacity="1"/>
<polyline clip-path="url(#clip302)" style="stroke:#000000; stroke-linecap:round; stroke-linejoin:round; stroke-width:4; stroke-opacity:1; fill:none" points="1913.6,1416.41 1913.6,1423.18 1954.21,1423.18 1954.21,1416.41 1913.6,1416.41 "/>
<path clip-path="url(#clip302)" d="M1954.21 1419.8 L1954.21 1423.18 L1994.81 1423.18 L1994.81 1419.8 L1954.21 1419.8 L1954.21 1419.8  Z" fill="#009af9" fill-rule="evenodd" fill-opacity="1"/>
<polyline clip-path="url(#clip302)" style="stroke:#000000; stroke-linecap:round; stroke-linejoin:round; stroke-width:4; stroke-opacity:1; fill:none" points="1954.21,1419.8 1954.21,1423.18 1994.81,1423.18 1994.81,1419.8 1954.21,1419.8 "/>
<path clip-path="url(#clip302)" d="M1994.81 1420.92 L1994.81 1423.18 L2035.42 1423.18 L2035.42 1420.92 L1994.81 1420.92 L1994.81 1420.92  Z" fill="#009af9" fill-rule="evenodd" fill-opacity="1"/>
<polyline clip-path="url(#clip302)" style="stroke:#000000; stroke-linecap:round; stroke-linejoin:round; stroke-width:4; stroke-opacity:1; fill:none" points="1994.81,1420.92 1994.81,1423.18 2035.42,1423.18 2035.42,1420.92 1994.81,1420.92 "/>
<path clip-path="url(#clip302)" d="M2035.42 1422.05 L2035.42 1423.18 L2076.03 1423.18 L2076.03 1422.05 L2035.42 1422.05 L2035.42 1422.05  Z" fill="#009af9" fill-rule="evenodd" fill-opacity="1"/>
<polyline clip-path="url(#clip302)" style="stroke:#000000; stroke-linecap:round; stroke-linejoin:round; stroke-width:4; stroke-opacity:1; fill:none" points="2035.42,1422.05 2035.42,1423.18 2076.03,1423.18 2076.03,1422.05 2035.42,1422.05 "/>
<path clip-path="url(#clip302)" d="M2076.03 1419.8 L2076.03 1423.18 L2116.64 1423.18 L2116.64 1419.8 L2076.03 1419.8 L2076.03 1419.8  Z" fill="#009af9" fill-rule="evenodd" fill-opacity="1"/>
<polyline clip-path="url(#clip302)" style="stroke:#000000; stroke-linecap:round; stroke-linejoin:round; stroke-width:4; stroke-opacity:1; fill:none" points="2076.03,1419.8 2076.03,1423.18 2116.64,1423.18 2116.64,1419.8 2076.03,1419.8 "/>
<circle clip-path="url(#clip302)" style="fill:#009af9; stroke:none; fill-opacity:0" cx="390.769" cy="1422.05" r="2"/>
<circle clip-path="url(#clip302)" style="fill:#009af9; stroke:none; fill-opacity:0" cx="431.378" cy="1422.05" r="2"/>
<circle clip-path="url(#clip302)" style="fill:#009af9; stroke:none; fill-opacity:0" cx="471.987" cy="1418.67" r="2"/>
<circle clip-path="url(#clip302)" style="fill:#009af9; stroke:none; fill-opacity:0" cx="512.596" cy="1416.41" r="2"/>
<circle clip-path="url(#clip302)" style="fill:#009af9; stroke:none; fill-opacity:0" cx="553.204" cy="1413.03" r="2"/>
<circle clip-path="url(#clip302)" style="fill:#009af9; stroke:none; fill-opacity:0" cx="593.813" cy="1405.13" r="2"/>
<circle clip-path="url(#clip302)" style="fill:#009af9; stroke:none; fill-opacity:0" cx="634.422" cy="1393.86" r="2"/>
<circle clip-path="url(#clip302)" style="fill:#009af9; stroke:none; fill-opacity:0" cx="675.031" cy="1396.11" r="2"/>
<circle clip-path="url(#clip302)" style="fill:#009af9; stroke:none; fill-opacity:0" cx="715.639" cy="1374.68" r="2"/>
<circle clip-path="url(#clip302)" style="fill:#009af9; stroke:none; fill-opacity:0" cx="756.248" cy="1365.66" r="2"/>
<circle clip-path="url(#clip302)" style="fill:#009af9; stroke:none; fill-opacity:0" cx="796.857" cy="1310.4" r="2"/>
<circle clip-path="url(#clip302)" style="fill:#009af9; stroke:none; fill-opacity:0" cx="837.466" cy="1292.35" r="2"/>
<circle clip-path="url(#clip302)" style="fill:#009af9; stroke:none; fill-opacity:0" cx="878.074" cy="1232.58" r="2"/>
<circle clip-path="url(#clip302)" style="fill:#009af9; stroke:none; fill-opacity:0" cx="918.683" cy="1163.78" r="2"/>
<circle clip-path="url(#clip302)" style="fill:#009af9; stroke:none; fill-opacity:0" cx="959.292" cy="977.692" r="2"/>
<circle clip-path="url(#clip302)" style="fill:#009af9; stroke:none; fill-opacity:0" cx="999.901" cy="933.708" r="2"/>
<circle clip-path="url(#clip302)" style="fill:#009af9; stroke:none; fill-opacity:0" cx="1040.51" cy="730.701" r="2"/>
<circle clip-path="url(#clip302)" style="fill:#009af9; stroke:none; fill-opacity:0" cx="1081.12" cy="553.634" r="2"/>
<circle clip-path="url(#clip302)" style="fill:#009af9; stroke:none; fill-opacity:0" cx="1121.73" cy="372.055" r="2"/>
<circle clip-path="url(#clip302)" style="fill:#009af9; stroke:none; fill-opacity:0" cx="1162.34" cy="252.507" r="2"/>
<circle clip-path="url(#clip302)" style="fill:#009af9; stroke:none; fill-opacity:0" cx="1202.94" cy="130.702" r="2"/>
<circle clip-path="url(#clip302)" style="fill:#009af9; stroke:none; fill-opacity:0" cx="1243.55" cy="731.829" r="2"/>
<circle clip-path="url(#clip302)" style="fill:#009af9; stroke:none; fill-opacity:0" cx="1284.16" cy="51.7554" r="2"/>
<circle clip-path="url(#clip302)" style="fill:#009af9; stroke:none; fill-opacity:0" cx="1324.77" cy="47.2441" r="2"/>
<circle clip-path="url(#clip302)" style="fill:#009af9; stroke:none; fill-opacity:0" cx="1365.38" cy="117.169" r="2"/>
<circle clip-path="url(#clip302)" style="fill:#009af9; stroke:none; fill-opacity:0" cx="1405.99" cy="249.123" r="2"/>
<circle clip-path="url(#clip302)" style="fill:#009af9; stroke:none; fill-opacity:0" cx="1446.6" cy="418.296" r="2"/>
<circle clip-path="url(#clip302)" style="fill:#009af9; stroke:none; fill-opacity:0" cx="1487.21" cy="559.273" r="2"/>
<circle clip-path="url(#clip302)" style="fill:#009af9; stroke:none; fill-opacity:0" cx="1527.81" cy="738.595" r="2"/>
<circle clip-path="url(#clip302)" style="fill:#009af9; stroke:none; fill-opacity:0" cx="1568.42" cy="922.429" r="2"/>
<circle clip-path="url(#clip302)" style="fill:#009af9; stroke:none; fill-opacity:0" cx="1609.03" cy="1057.77" r="2"/>
<circle clip-path="url(#clip302)" style="fill:#009af9; stroke:none; fill-opacity:0" cx="1649.64" cy="1173.93" r="2"/>
<circle clip-path="url(#clip302)" style="fill:#009af9; stroke:none; fill-opacity:0" cx="1690.25" cy="1269.8" r="2"/>
<circle clip-path="url(#clip302)" style="fill:#009af9; stroke:none; fill-opacity:0" cx="1730.86" cy="1308.14" r="2"/>
<circle clip-path="url(#clip302)" style="fill:#009af9; stroke:none; fill-opacity:0" cx="1771.47" cy="1384.83" r="2"/>
<circle clip-path="url(#clip302)" style="fill:#009af9; stroke:none; fill-opacity:0" cx="1812.08" cy="1374.68" r="2"/>
<circle clip-path="url(#clip302)" style="fill:#009af9; stroke:none; fill-opacity:0" cx="1852.68" cy="1397.24" r="2"/>
<circle clip-path="url(#clip302)" style="fill:#009af9; stroke:none; fill-opacity:0" cx="1893.29" cy="1400.62" r="2"/>
<circle clip-path="url(#clip302)" style="fill:#009af9; stroke:none; fill-opacity:0" cx="1933.9" cy="1416.41" r="2"/>
<circle clip-path="url(#clip302)" style="fill:#009af9; stroke:none; fill-opacity:0" cx="1974.51" cy="1419.8" r="2"/>
<circle clip-path="url(#clip302)" style="fill:#009af9; stroke:none; fill-opacity:0" cx="2015.12" cy="1420.92" r="2"/>
<circle clip-path="url(#clip302)" style="fill:#009af9; stroke:none; fill-opacity:0" cx="2055.73" cy="1422.05" r="2"/>
<circle clip-path="url(#clip302)" style="fill:#009af9; stroke:none; fill-opacity:0" cx="2096.34" cy="1419.8" r="2"/>
<path clip-path="url(#clip300)" d="M1910.52 196.789 L2159.15 196.789 L2159.15 93.1086 L1910.52 93.1086  Z" fill="#ffffff" fill-rule="evenodd" fill-opacity="1"/>
<polyline clip-path="url(#clip300)" style="stroke:#000000; stroke-linecap:round; stroke-linejoin:round; stroke-width:4; stroke-opacity:1; fill:none" points="1910.52,196.789 2159.15,196.789 2159.15,93.1086 1910.52,93.1086 1910.52,196.789 "/>
<path clip-path="url(#clip300)" d="M1932.32 165.685 L2063.12 165.685 L2063.12 124.213 L1932.32 124.213 L1932.32 165.685  Z" fill="#009af9" fill-rule="evenodd" fill-opacity="1"/>
<polyline clip-path="url(#clip300)" style="stroke:#000000; stroke-linecap:round; stroke-linejoin:round; stroke-width:4; stroke-opacity:1; fill:none" points="1932.32,165.685 2063.12,165.685 2063.12,124.213 1932.32,124.213 1932.32,165.685 "/>
<path clip-path="url(#clip300)" d="M2098.77 164.636 Q2096.96 169.266 2095.25 170.678 Q2093.54 172.09 2090.67 172.09 L2087.26 172.09 L2087.26 168.525 L2089.76 168.525 Q2091.52 168.525 2092.49 167.692 Q2093.47 166.858 2094.65 163.756 L2095.41 161.812 L2084.92 136.303 L2089.44 136.303 L2097.54 156.581 L2105.64 136.303 L2110.16 136.303 L2098.77 164.636 Z" fill="#000000" fill-rule="nonzero" fill-opacity="1" /><path clip-path="url(#clip300)" d="M2117.45 158.293 L2125.09 158.293 L2125.09 131.928 L2116.78 133.595 L2116.78 129.335 L2125.04 127.669 L2129.72 127.669 L2129.72 158.293 L2137.35 158.293 L2137.35 162.229 L2117.45 162.229 L2117.45 158.293 Z" fill="#000000" fill-rule="nonzero" fill-opacity="1" /><polyline clip-path="url(#clip300)" style="stroke:#000000; stroke-linecap:round; stroke-linejoin:round; stroke-width:4; stroke-opacity:1; fill:none" points="2224.55,1423.18 2224.55,47.2441 "/>
<polyline clip-path="url(#clip300)" style="stroke:#000000; stroke-linecap:round; stroke-linejoin:round; stroke-width:4; stroke-opacity:1; fill:none" points="2224.55,1384.26 2205.66,1384.26 "/>
<polyline clip-path="url(#clip300)" style="stroke:#000000; stroke-linecap:round; stroke-linejoin:round; stroke-width:4; stroke-opacity:1; fill:none" points="2224.55,1058.87 2205.66,1058.87 "/>
<polyline clip-path="url(#clip300)" style="stroke:#000000; stroke-linecap:round; stroke-linejoin:round; stroke-width:4; stroke-opacity:1; fill:none" points="2224.55,733.485 2205.66,733.485 "/>
<polyline clip-path="url(#clip300)" style="stroke:#000000; stroke-linecap:round; stroke-linejoin:round; stroke-width:4; stroke-opacity:1; fill:none" points="2224.55,408.098 2205.66,408.098 "/>
<polyline clip-path="url(#clip300)" style="stroke:#000000; stroke-linecap:round; stroke-linejoin:round; stroke-width:4; stroke-opacity:1; fill:none" points="2224.55,82.7108 2205.66,82.7108 "/>
<path clip-path="url(#clip300)" d="M2272.5 1370.06 Q2268.89 1370.06 2267.06 1373.62 Q2265.25 1377.16 2265.25 1384.29 Q2265.25 1391.4 2267.06 1394.96 Q2268.89 1398.51 2272.5 1398.51 Q2276.13 1398.51 2277.94 1394.96 Q2279.77 1391.4 2279.77 1384.29 Q2279.77 1377.16 2277.94 1373.62 Q2276.13 1370.06 2272.5 1370.06 M2272.5 1366.35 Q2278.31 1366.35 2281.36 1370.96 Q2284.44 1375.54 2284.44 1384.29 Q2284.44 1393.02 2281.36 1397.63 Q2278.31 1402.21 2272.5 1402.21 Q2266.69 1402.21 2263.61 1397.63 Q2260.55 1393.02 2260.55 1384.29 Q2260.55 1375.54 2263.61 1370.96 Q2266.69 1366.35 2272.5 1366.35 Z" fill="#000000" fill-rule="nonzero" fill-opacity="1" /><path clip-path="url(#clip300)" d="M2261.23 1072.22 L2268.86 1072.22 L2268.86 1045.85 L2260.55 1047.52 L2260.55 1043.26 L2268.82 1041.59 L2273.49 1041.59 L2273.49 1072.22 L2281.13 1072.22 L2281.13 1076.15 L2261.23 1076.15 L2261.23 1072.22 Z" fill="#000000" fill-rule="nonzero" fill-opacity="1" /><path clip-path="url(#clip300)" d="M2266.18 746.829 L2282.5 746.829 L2282.5 750.765 L2260.55 750.765 L2260.55 746.829 Q2263.22 744.075 2267.8 739.445 Q2272.41 734.792 2273.59 733.45 Q2275.83 730.927 2276.71 729.191 Q2277.61 727.431 2277.61 725.741 Q2277.61 722.987 2275.67 721.251 Q2273.75 719.515 2270.65 719.515 Q2268.45 719.515 2265.99 720.279 Q2263.56 721.042 2260.79 722.593 L2260.79 717.871 Q2263.61 716.737 2266.06 716.158 Q2268.52 715.58 2270.55 715.58 Q2275.93 715.58 2279.12 718.265 Q2282.31 720.95 2282.31 725.441 Q2282.31 727.57 2281.5 729.491 Q2280.72 731.39 2278.61 733.982 Q2278.03 734.653 2274.93 737.871 Q2271.83 741.065 2266.18 746.829 Z" fill="#000000" fill-rule="nonzero" fill-opacity="1" /><path clip-path="url(#clip300)" d="M2276.18 406.743 Q2279.54 407.461 2281.41 409.73 Q2283.31 411.998 2283.31 415.331 Q2283.31 420.447 2279.79 423.248 Q2276.27 426.049 2269.79 426.049 Q2267.61 426.049 2265.3 425.609 Q2263.01 425.192 2260.55 424.336 L2260.55 419.822 Q2262.5 420.956 2264.81 421.535 Q2267.13 422.114 2269.65 422.114 Q2274.05 422.114 2276.34 420.378 Q2278.66 418.642 2278.66 415.331 Q2278.66 412.276 2276.5 410.563 Q2274.37 408.827 2270.55 408.827 L2266.53 408.827 L2266.53 404.984 L2270.74 404.984 Q2274.19 404.984 2276.02 403.619 Q2277.85 402.23 2277.85 399.637 Q2277.85 396.975 2275.95 395.563 Q2274.07 394.128 2270.55 394.128 Q2268.63 394.128 2266.43 394.544 Q2264.24 394.961 2261.6 395.841 L2261.6 391.674 Q2264.26 390.933 2266.57 390.563 Q2268.91 390.193 2270.97 390.193 Q2276.3 390.193 2279.4 392.623 Q2282.5 395.031 2282.5 399.151 Q2282.5 402.021 2280.86 404.012 Q2279.21 405.98 2276.18 406.743 Z" fill="#000000" fill-rule="nonzero" fill-opacity="1" /><path clip-path="url(#clip300)" d="M2276.16 69.5048 L2264.35 87.9538 L2276.16 87.9538 L2276.16 69.5048 M2274.93 65.4308 L2280.81 65.4308 L2280.81 87.9538 L2285.74 87.9538 L2285.74 91.8427 L2280.81 91.8427 L2280.81 99.9908 L2276.16 99.9908 L2276.16 91.8427 L2260.55 91.8427 L2260.55 87.3288 L2274.93 65.4308 Z" fill="#000000" fill-rule="nonzero" fill-opacity="1" /><path clip-path="url(#clip300)" d="M2373.42 779.836 L2392.32 779.836 L2392.32 785.724 L2343.12 785.724 L2343.12 779.836 L2348.53 779.836 Q2345.34 777.99 2343.82 775.189 Q2342.26 772.356 2342.26 768.441 Q2342.26 761.948 2347.41 757.906 Q2352.57 753.832 2360.97 753.832 Q2369.37 753.832 2374.53 757.906 Q2379.69 761.948 2379.69 768.441 Q2379.69 772.356 2378.16 775.189 Q2376.6 777.99 2373.42 779.836 M2360.97 759.911 Q2354.51 759.911 2350.85 762.585 Q2347.16 765.226 2347.16 769.873 Q2347.16 774.52 2350.85 777.194 Q2354.51 779.836 2360.97 779.836 Q2367.43 779.836 2371.12 777.194 Q2374.79 774.52 2374.79 769.873 Q2374.79 765.226 2371.12 762.585 Q2367.43 759.911 2360.97 759.911 Z" fill="#000000" fill-rule="nonzero" fill-opacity="1" /><path clip-path="url(#clip300)" d="M2348.53 720.666 L2329.24 720.666 L2329.24 714.81 L2378.76 714.81 L2378.76 720.666 L2373.42 720.666 Q2376.6 722.512 2378.16 725.345 Q2379.69 728.146 2379.69 732.093 Q2379.69 738.554 2374.53 742.628 Q2369.37 746.67 2360.97 746.67 Q2352.57 746.67 2347.41 742.628 Q2342.26 738.554 2342.26 732.093 Q2342.26 728.146 2343.82 725.345 Q2345.34 722.512 2348.53 720.666 M2360.97 740.623 Q2367.43 740.623 2371.12 737.981 Q2374.79 735.307 2374.79 730.66 Q2374.79 726.014 2371.12 723.34 Q2367.43 720.666 2360.97 720.666 Q2354.51 720.666 2350.85 723.34 Q2347.16 726.014 2347.16 730.66 Q2347.16 735.307 2350.85 737.981 Q2354.51 740.623 2360.97 740.623 Z" fill="#000000" fill-rule="nonzero" fill-opacity="1" /><path clip-path="url(#clip300)" d="M2329.24 684.7 L2334.11 684.7 L2334.11 690.302 Q2334.11 693.453 2335.38 694.694 Q2336.65 695.904 2339.96 695.904 L2343.12 695.904 L2343.12 686.26 L2347.67 686.26 L2347.67 695.904 L2378.76 695.904 L2378.76 701.792 L2347.67 701.792 L2347.67 707.394 L2343.12 707.394 L2343.12 701.792 L2340.63 701.792 Q2334.68 701.792 2331.98 699.023 Q2329.24 696.254 2329.24 690.238 L2329.24 684.7 Z" fill="#000000" fill-rule="nonzero" fill-opacity="1" /><polyline clip-path="url(#clip302)" style="stroke:#ffa500; stroke-linecap:round; stroke-linejoin:round; stroke-width:20; stroke-opacity:1; fill:none" points="318.08,1384.24 330.13,1384.23 441.556,1383.97 508.518,1383.19 565.134,1381.33 595.885,1379.35 626.635,1376.21 654.984,1371.81 683.333,1365.4 698.53,1360.87 713.726,1355.43 728.923,1348.91 744.119,1341.17 761.726,1330.43 779.333,1317.51 796.94,1302.12 814.546,1283.94 830.193,1265.18 845.84,1243.75 861.487,1219.45 877.134,1192.09 890.854,1165.46 904.575,1136.26 918.296,1104.46 932.017,1070.01 946.976,1029.46 961.936,985.837 976.895,939.276 991.854,889.965 1006.9,837.846 1021.95,783.541 1037,727.456 1052.05,670.069 1085.32,541.338 1118.6,415.767 1126.51,387.192 1134.43,359.333 1142.34,332.294 1150.26,306.183 1158.18,281.1 1166.09,257.149 1174.01,234.426 1181.92,213.026 1190.15,192.275 1198.38,173.148 1206.61,155.734 1214.84,140.115 1223.07,126.367 1231.3,114.553 1239.53,104.733 1247.76,96.9541 1254.69,92.0157 1261.62,88.5677 1268.54,86.6221 1275.47,86.1857 1282.4,87.2599 1289.33,89.8411 1296.26,93.9202 1303.18,99.4831 1311.64,108.258 1320.1,119.17 1328.56,132.163 1337.02,147.172 1345.48,164.119 1353.93,182.921 1362.39,203.484 1370.85,225.708 1378.6,247.431 1386.35,270.37 1394.09,294.435 1401.84,319.531 1409.59,345.563 1417.34,372.433 1425.09,400.042 1432.84,428.291 1461.46,536.572 1490.08,647.379 1504.58,703.035 1519.08,757.69 1533.58,810.891 1548.08,862.242 1564.32,917.186 1580.57,969.015 1588.7,993.669 1596.82,1017.45 1604.94,1040.33 1613.07,1062.3 1627.79,1099.77 1642.51,1134.19 1657.24,1165.6 1671.96,1194.07 1680.39,1209.08 1688.82,1223.19 1697.25,1236.41 1705.67,1248.78 1722.53,1271.09 1739.39,1290.38 1755,1305.78 1770.61,1319.04 1786.21,1330.37 1801.82,1340 1817.21,1348.02 1832.6,1354.76 1847.99,1360.38 1863.37,1365.04 1893.25,1371.85 1923.14,1376.43 1984.4,1381.41 2051.52,1383.41 2149.02,1384.14 2169.03,1384.18 "/>
<path clip-path="url(#clip300)" d="M1910.89 196.789 L2159.15 196.789 L2159.15 93.1086 L1910.89 93.1086  Z" fill="#ffffff" fill-rule="evenodd" fill-opacity="1"/>
<polyline clip-path="url(#clip300)" style="stroke:#000000; stroke-linecap:round; stroke-linejoin:round; stroke-width:4; stroke-opacity:1; fill:none" points="1910.89,196.789 2159.15,196.789 2159.15,93.1086 1910.89,93.1086 1910.89,196.789 "/>
<polyline clip-path="url(#clip300)" style="stroke:#ffa500; stroke-linecap:round; stroke-linejoin:round; stroke-width:20; stroke-opacity:1; fill:none" points="1932.69,144.949 2063.49,144.949 "/>
<path clip-path="url(#clip300)" d="M2099.14 164.636 Q2097.33 169.266 2095.62 170.678 Q2093.91 172.09 2091.04 172.09 L2087.63 172.09 L2087.63 168.525 L2090.13 168.525 Q2091.89 168.525 2092.86 167.692 Q2093.84 166.858 2095.02 163.756 L2095.78 161.812 L2085.29 136.303 L2089.81 136.303 L2097.91 156.581 L2106.01 136.303 L2110.53 136.303 L2099.14 164.636 Z" fill="#000000" fill-rule="nonzero" fill-opacity="1" /><path clip-path="url(#clip300)" d="M2121.04 158.293 L2137.35 158.293 L2137.35 162.229 L2115.41 162.229 L2115.41 158.293 Q2118.07 155.539 2122.66 150.909 Q2127.26 146.256 2128.44 144.914 Q2130.69 142.391 2131.57 140.655 Q2132.47 138.895 2132.47 137.206 Q2132.47 134.451 2130.53 132.715 Q2128.6 130.979 2125.5 130.979 Q2123.3 130.979 2120.85 131.743 Q2118.42 132.507 2115.64 134.057 L2115.64 129.335 Q2118.47 128.201 2120.92 127.622 Q2123.37 127.044 2125.41 127.044 Q2130.78 127.044 2133.98 129.729 Q2137.17 132.414 2137.17 136.905 Q2137.17 139.034 2136.36 140.956 Q2135.57 142.854 2133.47 145.446 Q2132.89 146.118 2129.79 149.335 Q2126.68 152.53 2121.04 158.293 Z" fill="#000000" fill-rule="nonzero" fill-opacity="1" /></svg>
